<svg width="32" height="32" viewBox="0 0 32 32" fill="none" xmlns="http://www.w3.org/2000/svg">
<path d="M6.1 10.6667H25.9C26.1917 10.6667 26.4715 10.5262 26.6778 10.2761C26.8841 10.0261 27 9.68696 27 9.33333C27 8.97971 26.8841 8.64057 26.6778 8.39052C26.4715 8.14048 26.1917 8 25.9 8H6.1C5.80826 8 5.52847 8.14048 5.32218 8.39052C5.11589 8.64057 5 8.97971 5 9.33333C5 9.68696 5.11589 10.0261 5.32218 10.2761C5.52847 10.5262 5.80826 10.6667 6.1 10.6667V10.6667ZM25.9 21.3333H6.1C5.80826 21.3333 5.52847 21.4738 5.32218 21.7239C5.11589 21.9739 5 22.313 5 22.6667C5 23.0203 5.11589 23.3594 5.32218 23.6095C5.52847 23.8595 5.80826 24 6.1 24H25.9C26.1917 24 26.4715 23.8595 26.6778 23.6095C26.8841 23.3594 27 23.0203 27 22.6667C27 22.313 26.8841 21.9739 26.6778 21.7239C26.4715 21.4738 26.1917 21.3333 25.9 21.3333ZM25.9 14.6667H6.1C5.80826 14.6667 5.52847 14.8071 5.32218 15.0572C5.11589 15.3072 5 15.6464 5 16C5 16.3536 5.11589 16.6928 5.32218 16.9428C5.52847 17.1929 5.80826 17.3333 6.1 17.3333H25.9C26.1917 17.3333 26.4715 17.1929 26.6778 16.9428C26.8841 16.6928 27 16.3536 27 16C27 15.6464 26.8841 15.3072 26.6778 15.0572C26.4715 14.8071 26.1917 14.6667 25.9 14.6667Z" fill="white"/>
</svg>
