<svg width="126" height="30" viewBox="0 0 126 30" fill="none" xmlns="http://www.w3.org/2000/svg">
<path d="M18.56 3.86C18.56 5.44 17.87 7.03 16.49 8.63C15.13 10.21 13.52 11.55 11.66 12.65C12.08 13.07 12.63 14.21 13.31 16.07C13.99 17.93 14.53 19.37 14.93 20.39C15.33 21.39 15.81 22.35 16.37 23.27C16.95 24.19 17.53 24.65 18.11 24.65C18.23 24.65 18.32 24.64 18.38 24.62L18.68 25.7C17.7 26.48 16.58 26.87 15.32 26.87C14.06 26.87 13.17 26.54 12.65 25.88C12.13 25.24 11.65 23.91 11.21 21.89C11.15 21.63 10.98 20.8 10.7 19.4C10.08 16.34 9.58 14.46 9.2 13.76C9.08 13.78 8.84 13.79 8.48 13.79C8.12 13.79 7.85 13.72 7.67 13.58C7.53 13.44 7.46 13.1 7.46 12.56C7.46 12.02 7.51 11.61 7.61 11.33C7.71 11.03 8.04 10.88 8.6 10.88C9.18 10.88 9.73 11.05 10.25 11.39C10.97 10.91 11.86 9.99 12.92 8.63C13.48 7.61 13.76 6.45 13.76 5.15C13.76 4.57 13.71 3.96 13.61 3.32C14.27 2.9 14.94 2.57 15.62 2.33C16.32 2.07 16.85 1.92 17.21 1.88L17.75 1.82C18.29 2.14 18.56 2.82 18.56 3.86ZM3.83 4.37C3.83 3.91 3.59 3.41 3.11 2.87L3.14 2.66C4.24 2.02 5.59 1.7 7.19 1.7C7.81 1.7 8.27 1.75 8.57 1.85C8.67 2.07 8.72 2.38 8.72 2.78C8.72 3.16 8.69 3.6 8.63 4.1C8.57 4.58 8.51 5.01 8.45 5.39C8.41 5.75 8.31 6.28 8.15 6.98C7.99 7.68 7.87 8.18 7.79 8.48C6.15 14.82 5.22 19.55 5 22.67C3.82 23.01 2.51 23.18 1.07 23.18C0.73 23.18 0.48 23.15 0.32 23.09C0.42 21.85 1.03 18.75 2.15 13.79C3.27 8.83 3.83 5.69 3.83 4.37ZM21.8539 23.36C20.4739 23.36 19.3939 22.88 18.6139 21.92C17.8339 20.94 17.4439 19.58 17.4439 17.84C17.4439 15.62 18.0339 13.71 19.2139 12.11C20.4139 10.51 22.0639 9.71 24.1639 9.71L25.2439 9.77C25.5839 9.59 25.9639 9.5 26.3839 9.5C27.9639 9.5 28.7539 10.99 28.7539 13.97C29.5739 13.93 30.4039 13.82 31.2439 13.64L31.7239 13.52L31.9039 14.69C31.2439 14.97 30.3539 15.22 29.2339 15.44L28.6339 15.56C28.2539 17.66 27.4839 19.49 26.3239 21.05C25.1639 22.59 23.6739 23.36 21.8539 23.36ZM23.4739 20.78C24.3139 20.78 25.0639 20.24 25.7239 19.16C26.4039 18.08 26.8739 16.94 27.1339 15.74C24.9939 15.74 23.9239 14.94 23.9239 13.34C23.9239 12.7 24.0539 12.1 24.3139 11.54L24.4639 11.24C24.3839 11.2 24.2839 11.18 24.1639 11.18C24.0439 11.18 23.9539 11.2 23.8939 11.24C23.3939 11.56 22.9239 12.31 22.4839 13.49C22.0439 14.67 21.8239 16.02 21.8239 17.54C21.8239 19.7 22.3739 20.78 23.4739 20.78ZM30.2998 23.09H29.7298C29.7298 22.15 30.0098 20.35 30.5698 17.69C31.1498 15.03 31.4398 13.52 31.4398 13.16C31.4398 12.5 31.1598 11.8 30.5998 11.06L30.3298 10.7L30.3598 10.31C31.4398 10.01 33.1698 9.86 35.5498 9.86C35.8098 10.2 35.9498 10.82 35.9698 11.72C37.7098 10.38 39.1798 9.71 40.3798 9.71C41.0998 9.71 41.6698 9.96 42.0898 10.46C42.5298 10.96 42.7498 11.59 42.7498 12.35C42.7498 13.09 42.5198 14.38 42.0598 16.22C41.5998 18.06 41.3698 19.3 41.3698 19.94C41.3698 20.56 41.4498 20.87 41.6098 20.87C41.7298 20.87 42.1498 20.68 42.8698 20.3L43.2298 20.12L43.7698 21.17C43.5898 21.33 43.3498 21.53 43.0498 21.77C42.7498 22.01 42.1898 22.34 41.3698 22.76C40.5698 23.16 39.8498 23.36 39.2098 23.36C37.7498 23.36 37.0198 22.53 37.0198 20.87C37.0198 20.17 37.2398 18.88 37.6798 17C38.1398 15.12 38.3698 13.91 38.3698 13.37C38.3698 12.83 38.1998 12.56 37.8598 12.56C37.2798 12.56 36.5698 12.81 35.7298 13.31C35.6698 13.65 35.4698 14.55 35.1298 16.01C34.4298 19.15 34.0798 21.37 34.0798 22.67C33.3798 22.95 32.1198 23.09 30.2998 23.09ZM58.9442 21.17C57.2442 22.63 55.7442 23.36 54.4442 23.36C53.1642 23.36 52.4242 22.72 52.2242 21.44C51.6242 22.04 50.9542 22.51 50.2142 22.85C49.4742 23.19 48.8242 23.36 48.2642 23.36C47.3042 23.36 46.4842 22.94 45.8042 22.1C45.1242 21.26 44.7842 19.96 44.7842 18.2C44.7842 15.56 45.3442 13.49 46.4642 11.99C47.5842 10.47 48.8442 9.71 50.2442 9.71C51.6642 9.71 52.8542 10.03 53.8142 10.67C54.4342 7.43 54.7442 4.88 54.7442 3.02L54.5942 1.76C56.0942 1.24 57.5642 0.979999 59.0042 0.979999C59.1642 1.32 59.2442 1.71 59.2442 2.15C59.2442 3.61 58.8042 6.58 57.9242 11.06C57.0442 15.52 56.6042 18.55 56.6042 20.15C56.6042 20.63 56.7142 20.87 56.9342 20.87C57.0542 20.87 57.4342 20.68 58.0742 20.3L58.3742 20.12L58.9442 21.17ZM51.7142 11.48C51.0142 11.48 50.4042 12.17 49.8842 13.55C49.3842 14.93 49.1342 16.3 49.1342 17.66C49.1342 19 49.2242 19.86 49.4042 20.24C49.6042 20.62 49.8942 20.81 50.2742 20.81C50.9342 20.81 51.5842 20.54 52.2242 20C52.2842 19.2 52.7342 16.54 53.5742 12.02C52.8942 11.66 52.2742 11.48 51.7142 11.48ZM68.7228 10.58C68.7628 10.54 68.8728 10.28 69.0528 9.8C69.9928 9.8 71.2528 10.08 72.8328 10.64C72.3328 12.3 71.9328 14.04 71.6328 15.86C71.3328 17.66 71.1828 18.95 71.1828 19.73C71.1828 20.49 71.2628 20.87 71.4228 20.87C71.5428 20.87 71.9828 20.68 72.7428 20.3L73.1028 20.12L73.6428 21.17C73.4628 21.33 73.2228 21.53 72.9228 21.77C72.6428 22.01 72.1028 22.34 71.3028 22.76C70.5028 23.16 69.7828 23.36 69.1428 23.36C67.9028 23.36 67.1828 22.8 66.9828 21.68C65.7028 22.8 64.5428 23.36 63.5028 23.36C62.4828 23.36 61.6128 22.96 60.8928 22.16C60.1928 21.36 59.8428 20.1 59.8428 18.38C59.8428 15.7 60.3928 13.59 61.4928 12.05C62.5928 10.49 63.9228 9.71 65.4828 9.71C66.6028 9.71 67.6828 10 68.7228 10.58ZM65.3028 20.81C65.7828 20.81 66.3228 20.62 66.9228 20.24C67.0628 17.42 67.5328 14.63 68.3328 11.87C67.7328 11.61 67.2228 11.48 66.8028 11.48C66.0828 11.48 65.4628 12.19 64.9428 13.61C64.4428 15.01 64.1928 16.56 64.1928 18.26C64.1928 19.96 64.5628 20.81 65.3028 20.81ZM80.4069 11.57C80.4069 12.41 80.1369 13.86 79.5969 15.92C79.0569 17.96 78.7869 19.3 78.7869 19.94C78.7869 20.56 78.8769 20.87 79.0569 20.87C79.1769 20.87 79.6369 20.68 80.4369 20.3L80.7969 20.12L81.3069 21.17C81.1269 21.33 80.8869 21.53 80.5869 21.77C80.2869 22.01 79.7269 22.34 78.9069 22.76C78.0869 23.16 77.3269 23.36 76.6269 23.36C75.9269 23.36 75.3769 23.15 74.9769 22.73C74.5769 22.29 74.3769 21.71 74.3769 20.99C74.3769 20.25 74.6269 18.95 75.1269 17.09C75.6269 15.21 75.8769 13.99 75.8769 13.43C75.8769 12.59 75.6169 11.8 75.0969 11.06L74.8269 10.7L74.8569 10.31C75.9169 10.01 77.6369 9.86 80.0169 9.86C80.2769 10.16 80.4069 10.73 80.4069 11.57ZM76.9869 6.59C76.5869 6.19 76.3869 5.66 76.3869 5C76.3869 4.34 76.6569 3.76 77.1969 3.26C77.7569 2.76 78.3969 2.51 79.1169 2.51C79.8369 2.51 80.3969 2.71 80.7969 3.11C81.1969 3.51 81.3969 4.04 81.3969 4.7C81.3969 5.34 81.1069 5.91 80.5269 6.41C79.9669 6.91 79.3369 7.16 78.6369 7.16C77.9369 7.16 77.3869 6.97 76.9869 6.59ZM104.937 24.68C104.637 25.32 104.157 25.9 103.497 26.42C102.857 26.96 102.167 27.23 101.427 27.23C100.687 27.23 99.9566 27.02 99.2366 26.6C98.5366 26.2 97.9666 25.79 97.5266 25.37C97.0866 24.95 96.4566 24.3 95.6366 23.42C94.8366 22.54 94.2866 21.95 93.9866 21.65C92.9266 22.79 91.6366 23.36 90.1166 23.36C89.1166 23.36 88.2966 23.11 87.6566 22.61C87.0166 22.11 86.6966 21.45 86.6966 20.63C86.6966 19.79 87.0366 19.08 87.7166 18.5C88.4166 17.9 89.3466 17.6 90.5066 17.6C91.1666 17.6 91.8266 17.71 92.4866 17.93C92.6866 16.95 92.8466 15.56 92.9666 13.76C91.7466 13.54 90.7466 13.03 89.9666 12.23C89.2066 11.41 88.8266 10.28 88.8266 8.84C88.8266 8.28 88.9166 7.57 89.0966 6.71C89.3166 6.67 89.6066 6.65 89.9666 6.65C90.3266 6.65 90.6966 6.79 91.0766 7.07C90.8166 7.55 90.6866 8.19 90.6866 8.99C90.6866 10.61 91.4766 11.61 93.0566 11.99C93.1366 9.81 93.2566 8.28 93.4166 7.4C93.5766 6.5 93.8566 5.65 94.2566 4.85C94.6566 4.03 95.3166 3.3 96.2366 2.66C97.1766 2.02 98.3666 1.7 99.8066 1.7C101.247 1.7 102.357 2.13 103.137 2.99C103.937 3.83 104.337 4.83 104.337 5.99C104.337 7.61 103.587 9.25 102.087 10.91C100.607 12.55 98.7666 13.55 96.5666 13.91C95.9466 16.61 95.4966 18.44 95.2166 19.4C95.5366 19.64 96.1166 20.09 96.9566 20.75C97.8166 21.41 98.4666 21.9 98.9066 22.22C99.3666 22.52 99.9766 22.82 100.737 23.12C101.517 23.44 102.267 23.6 102.987 23.6L104.247 23.51C104.587 23.99 104.817 24.38 104.937 24.68ZM102.327 6.26C102.327 5.66 102.167 5.17 101.847 4.79C101.547 4.41 101.137 4.22 100.617 4.22C99.2766 4.22 98.2966 5.68 97.6766 8.6C97.3366 10.2 97.0966 11.36 96.9566 12.08C98.4366 11.82 99.6966 11.09 100.737 9.89C101.797 8.67 102.327 7.46 102.327 6.26ZM89.8466 21.11C90.5466 21.11 91.1666 20.73 91.7066 19.97C91.1266 19.61 90.5466 19.43 89.9666 19.43C89.1066 19.43 88.6766 19.71 88.6766 20.27C88.6766 20.55 88.7966 20.76 89.0366 20.9C89.2766 21.04 89.5466 21.11 89.8466 21.11ZM110.348 11.57C110.348 12.41 110.078 13.86 109.538 15.92C108.998 17.96 108.728 19.3 108.728 19.94C108.728 20.56 108.818 20.87 108.998 20.87C109.118 20.87 109.578 20.68 110.378 20.3L110.738 20.12L111.248 21.17C111.068 21.33 110.828 21.53 110.528 21.77C110.228 22.01 109.668 22.34 108.848 22.76C108.028 23.16 107.268 23.36 106.568 23.36C105.868 23.36 105.318 23.15 104.918 22.73C104.518 22.29 104.318 21.71 104.318 20.99C104.318 20.25 104.568 18.95 105.068 17.09C105.568 15.21 105.818 13.99 105.818 13.43C105.818 12.59 105.558 11.8 105.038 11.06L104.768 10.7L104.798 10.31C105.858 10.01 107.578 9.86 109.958 9.86C110.218 10.16 110.348 10.73 110.348 11.57ZM106.928 6.59C106.528 6.19 106.328 5.66 106.328 5C106.328 4.34 106.598 3.76 107.138 3.26C107.698 2.76 108.338 2.51 109.058 2.51C109.778 2.51 110.338 2.71 110.738 3.11C111.138 3.51 111.338 4.04 111.338 4.7C111.338 5.34 111.048 5.91 110.468 6.41C109.908 6.91 109.278 7.16 108.578 7.16C107.878 7.16 107.328 6.97 106.928 6.59ZM111.442 29.72C111.342 29.48 111.292 28.95 111.292 28.13C111.292 27.31 111.682 25.11 112.462 21.53C113.242 17.93 113.632 15.16 113.632 13.22C113.632 12.84 113.542 12.44 113.362 12.02C113.182 11.58 112.992 11.24 112.792 11L112.522 10.67L112.552 10.28C113.492 9.98 115.152 9.83 117.532 9.83C117.752 10.25 117.892 10.84 117.952 11.6C119.492 10.34 120.772 9.71 121.792 9.71C122.832 9.71 123.662 10.14 124.282 11C124.922 11.86 125.242 13.12 125.242 14.78C125.242 17.68 124.712 19.84 123.652 21.26C122.592 22.66 121.252 23.36 119.632 23.36C118.792 23.36 118.092 23.24 117.532 23L117.232 22.88L117.442 21.71C117.622 21.75 117.832 21.77 118.072 21.77C118.592 21.77 119.042 21.53 119.422 21.05C119.822 20.57 120.122 19.96 120.322 19.22C120.722 17.74 120.922 16.37 120.922 15.11C120.922 13.31 120.552 12.41 119.812 12.41C119.232 12.41 118.612 12.64 117.952 13.1C117.872 14.5 117.462 16.95 116.722 20.45C115.982 23.95 115.612 26.77 115.612 28.91C114.532 29.35 113.142 29.62 111.442 29.72Z" fill="#D3B881"/>
</svg>
