<svg width="80" height="80" viewBox="0 0 80 80" fill="none" xmlns="http://www.w3.org/2000/svg">
<g clip-path="url(#clip0_102_515)">
<path d="M10.7731 14.5833C10.5323 14.2222 9.92586 14.287 9.74994 14.6574L5.47679 24.0695L1.13883 14.6574C0.962899 14.2778 0.365677 14.2315 0.134195 14.5833C0.0323436 14.75 0.0138251 14.9537 0.0971584 15.1296L5.45827 26.7824H5.47679L10.8101 15.1296C10.8935 14.9583 10.8749 14.75 10.7731 14.5833Z" fill="#2D9C8E"/>
<path d="M14.2685 14.3241C13.9352 14.3241 13.6667 14.5926 13.6667 14.9259V26.1898C13.6667 26.5139 13.9352 26.7824 14.2685 26.7824C14.6019 26.7824 14.8611 26.5139 14.8611 26.1898V14.9305C14.8611 14.5926 14.6019 14.3241 14.2685 14.3241ZM15.0648 9.33333C14.8426 9.11111 14.5833 9 14.2593 9C13.9537 9 13.6945 9.11111 13.4676 9.33333C13.2454 9.56481 13.1343 9.82407 13.1343 10.1528C13.1343 10.4583 13.2454 10.7176 13.4676 10.9537C13.9213 11.4074 14.6204 11.3889 15.0648 10.9537C15.287 10.7222 15.3982 10.463 15.3982 10.1528C15.4028 9.8287 15.287 9.56481 15.0648 9.33333Z" fill="#2D9C8E"/>
<path d="M18.2547 9.33334C17.9213 9.33334 17.6528 9.60186 17.6528 9.93519V26.1852C17.6528 26.5093 17.9213 26.7778 18.2547 26.7778C18.5787 26.7778 18.8472 26.5093 18.8472 26.1852V9.93519C18.8472 9.60186 18.5787 9.33334 18.2547 9.33334Z" fill="#2D9C8E"/>
<path d="M22.2408 9.33334H22.2315C21.9074 9.33334 21.6389 9.60186 21.6389 9.93519V26.1852C21.6389 26.5093 21.9074 26.7778 22.2315 26.7778C22.5648 26.7778 22.8334 26.5093 22.8334 26.1852V9.93519C22.8334 9.60186 22.5648 9.33334 22.2408 9.33334Z" fill="#2D9C8E"/>
<path d="M37.4397 14.3241V16.8611L37.023 16.2778C36.4027 15.4028 35.6665 14.7454 34.8378 14.3194C34.0184 13.8843 33.0832 13.6574 32.0693 13.6574C29.8471 13.6574 28.0092 14.6806 26.5971 16.6852C26.1342 17.3241 25.8332 18.088 25.7221 18.8704C25.3703 21.287 25.9629 23.3009 27.4953 24.875C28.7406 26.1482 30.2545 26.7871 32.0091 26.7871C33.0045 26.7871 33.9212 26.5834 34.7591 26.1759C35.5878 25.7685 36.3564 25.1435 37.0276 24.3287L37.4351 23.8287V26.7917H38.6156V14.3241H37.4397ZM36.8656 23.0509C36.4026 23.8704 35.7406 24.5278 34.8934 25C34.0462 25.4722 33.1388 25.7176 32.1897 25.7176C31.2499 25.7176 30.361 25.4769 29.5416 24.9908C28.7129 24.5093 28.0554 23.8287 27.574 22.963C27.0925 22.0972 26.8471 21.1898 26.8471 20.2408C26.8471 19.2824 27.0879 18.375 27.5647 17.5185C28.0462 16.6528 28.7082 15.9861 29.523 15.5093C30.3425 15.037 31.2406 14.7917 32.199 14.7917C33.7036 14.7917 34.9767 15.3194 36.0091 16.3704C37.0323 17.412 37.5508 18.7315 37.5508 20.2824C37.5508 21.3009 37.3193 22.2315 36.8656 23.0509Z" fill="#2D9C8E"/>
<path d="M10.3149 56.838H1.5464V35.3241C1.5464 34.9167 1.20843 34.5787 0.796395 34.5787C0.388988 34.5787 0.0510254 34.9167 0.0510254 35.3241V58.2454H10.3149C10.7038 58.2454 11.0186 57.9306 11.0186 57.5417C11.0186 57.1528 10.7038 56.838 10.3149 56.838Z" fill="#F3A162"/>
<path d="M28.8519 33.963C28.4398 33.963 28.1019 34.3009 28.1019 34.713V48.3472C28.1019 50.3518 28.0185 51.6528 27.838 52.3241C27.588 53.2639 27.1852 54.0694 26.6435 54.7361C26.0926 55.4028 25.4028 55.9305 24.5926 56.3055C22.8611 57.1065 20.8935 57.0417 19.0417 56.1574C18.037 55.6852 17.2824 55.0787 16.7824 54.3518C16.2963 53.6389 15.9815 52.75 15.8519 51.7083C15.7824 51.2546 15.75 50.1574 15.75 48.3472V34.713C15.75 34.3009 15.412 33.963 15.0046 33.963C14.5926 33.963 14.2546 34.3009 14.2546 34.713V48.3472C14.2546 50.7917 14.4028 52.4861 14.6898 53.3981C15.1296 54.8472 16.0232 56.0231 17.3426 56.9028C18.6759 57.7963 20.2963 58.25 22.1806 58.25C23.8935 58.25 25.3704 57.7778 26.5602 56.838C27.7685 55.8981 28.5787 54.787 28.9769 53.5324C29.3889 52.2315 29.5972 50.4861 29.5972 48.3472V34.713C29.5926 34.2963 29.2593 33.963 28.8519 33.963Z" fill="#F3A162"/>
<path d="M54.0928 53.4722C51.8242 55.7361 49.0372 56.8889 45.8196 56.8889C42.565 56.8889 39.8289 55.8287 37.6853 53.7315C35.5372 51.6435 34.4539 48.9907 34.4539 45.8657C34.4539 43.8009 34.94 41.912 35.9029 40.2593C36.8613 38.5972 38.2316 37.2593 39.977 36.2731C41.7178 35.2963 43.6298 34.8009 45.6668 34.8009C47.5279 34.8009 49.2687 35.1806 50.8289 35.9259C52.0511 36.5139 53.1576 37.3287 54.1066 38.3426C54.3705 38.6343 54.8057 38.6713 55.1159 38.4352C55.2826 38.3056 55.3937 38.1111 55.4122 37.8981C55.4307 37.6898 55.3659 37.4954 55.2316 37.3426C54.2409 36.2454 53.0326 35.338 51.6483 34.6574C49.8752 33.7824 47.852 33.3426 45.6344 33.3426C41.9816 33.3426 38.8937 34.537 36.4724 36.8935C34.0557 39.2454 32.8335 42.1944 32.8335 45.6481C32.8335 48.9352 33.8428 51.7778 35.8428 54.1018C38.227 56.8426 41.5326 58.2407 45.6715 58.2407C47.8566 58.2407 49.8613 57.8194 51.6205 57.0046C52.9724 56.3704 54.1668 55.5324 55.1761 54.5093C55.3196 54.3611 55.3891 54.1667 55.3705 53.9537C55.3566 53.7361 55.2455 53.5324 55.0742 53.4028C54.7733 53.1806 54.3566 53.213 54.0928 53.4722Z" fill="#F3A162"/>
<path d="M79.9307 57.213L69.389 34.5972L58.7224 57.1667C58.6112 57.4074 58.6251 57.6713 58.7687 57.8889C59.0649 58.3611 59.8566 58.3102 60.0927 57.8102L69.3751 38.1945L74.0187 48.0371L75.0835 50.4213L78.6205 57.8241C78.8473 58.301 79.5974 58.3473 79.8798 57.9028C80.0186 57.6945 80.0372 57.4445 79.9307 57.213Z" fill="#F3A162"/>
<path d="M69.352 53.912C70.1344 53.912 70.7686 53.2778 70.7686 52.4954C70.7686 51.713 70.1344 51.0787 69.352 51.0787C68.5696 51.0787 67.9353 51.713 67.9353 52.4954C67.9353 53.2778 68.5696 53.912 69.352 53.912Z" fill="#F3A162"/>
<path d="M0 65.4908H0.856481C1.19907 65.4908 1.46759 65.5324 1.65278 65.6204C1.83796 65.7083 1.98148 65.838 2.09259 66.0185C2.19907 66.1991 2.25463 66.3982 2.25463 66.6158C2.25463 66.8195 2.20833 67.0046 2.11574 67.1759C2.02315 67.3426 1.88426 67.4815 1.7037 67.5833C1.93056 67.6667 2.10185 67.7593 2.22685 67.8704C2.34722 67.9815 2.44444 68.1111 2.50926 68.2685C2.5787 68.4259 2.61111 68.5926 2.61111 68.7732C2.61111 69.1435 2.48611 69.4537 2.22685 69.7083C1.97222 69.963 1.62963 70.0926 1.19907 70.0926H0V65.4908ZM0.425926 65.9398V67.412H0.675926C0.976852 67.412 1.19907 67.3843 1.34259 67.3241C1.48611 67.2639 1.59722 67.1713 1.68056 67.0417C1.76389 66.912 1.80556 66.7732 1.80556 66.6158C1.80556 66.4074 1.73611 66.2408 1.59722 66.1204C1.45833 66 1.23611 65.9398 0.935185 65.9398H0.425926V65.9398ZM0.425926 67.875V69.6389H0.962963C1.28241 69.6389 1.51389 69.6065 1.66204 69.5417C1.81019 69.4769 1.92593 69.375 2.01852 69.2361C2.10648 69.0972 2.15278 68.9445 2.15278 68.7824C2.15278 68.5787 2.08796 68.3982 1.96296 68.25C1.83796 68.0972 1.66204 67.9954 1.44444 67.9352C1.2963 67.8982 1.04167 67.8796 0.671296 67.8796H0.425926V67.875Z" fill="#E8C268"/>
<path d="M6.62966 68.9583L6.97688 69.1528C6.86114 69.3889 6.73151 69.5833 6.57873 69.7269C6.43058 69.875 6.25929 69.9861 6.0741 70.0602C5.88892 70.1343 5.67595 70.1759 5.43984 70.1759C4.91669 70.1759 4.50466 69.9954 4.20836 69.6296C3.91206 69.2639 3.76392 68.8565 3.76392 68.3982C3.76392 67.9676 3.88892 67.5833 4.13892 67.2454C4.45836 66.8148 4.87966 66.6019 5.41206 66.6019C5.95836 66.6019 6.39818 66.8241 6.72225 67.2639C6.95373 67.5741 7.0741 67.963 7.07873 68.4259H4.19447C4.20373 68.8195 4.31947 69.1435 4.55095 69.3982C4.78243 69.6528 5.06484 69.7778 5.40743 69.7778C5.56947 69.7778 5.73151 69.7454 5.88429 69.6852C6.03706 69.625 6.17132 69.5463 6.27781 69.4445C6.38429 69.3426 6.50466 69.1806 6.62966 68.9583ZM6.62966 68.0417C6.5741 67.8102 6.4954 67.6204 6.38892 67.4815C6.28243 67.3426 6.14355 67.2315 5.97225 67.1435C5.80095 67.0602 5.61577 67.0139 5.42595 67.0139C5.11114 67.0139 4.83799 67.1204 4.61114 67.3334C4.44447 67.4908 4.31947 67.7222 4.23614 68.0371H6.62966V68.0417Z" fill="#E8C268"/>
<path d="M11.5879 66.6852V70.088H11.1805V69.5046C11.0092 69.7269 10.8148 69.8935 10.5972 70.0093C10.3796 70.1204 10.1435 70.1759 9.88887 70.1759C9.43517 70.1759 9.04628 70 8.7222 69.6528C8.40276 69.3056 8.24072 68.8796 8.24072 68.3796C8.24072 67.8889 8.40276 67.4722 8.72683 67.125C9.05091 66.7778 9.44443 66.6019 9.89813 66.6019C10.162 66.6019 10.3981 66.6621 10.6157 66.7778C10.8287 66.8982 11.0185 67.0741 11.1759 67.3148V66.6852H11.5879ZM9.93517 67.0232C9.70369 67.0232 9.49072 67.0833 9.29628 67.2037C9.10183 67.3241 8.94906 67.4908 8.83332 67.7083C8.71757 67.9259 8.66202 68.1528 8.66202 68.3935C8.66202 68.6343 8.71757 68.8611 8.83794 69.0787C8.95369 69.2963 9.11109 69.4676 9.30554 69.588C9.49998 69.7083 9.71295 69.7685 9.93517 69.7685C10.162 69.7685 10.375 69.7083 10.5787 69.588C10.7824 69.4676 10.9352 69.3056 11.0463 69.0972C11.1574 68.8889 11.2083 68.6574 11.2083 68.4028C11.2083 68.0093 11.0833 67.6806 10.8426 67.4167C10.5926 67.1528 10.2916 67.0232 9.93517 67.0232Z" fill="#E8C268"/>
<path d="M16.1667 67.3935L15.838 67.6111C15.5556 67.213 15.1667 67.0139 14.6806 67.0139C14.2871 67.0139 13.963 67.1482 13.7037 67.412C13.4445 67.6806 13.3149 68.0046 13.3149 68.3843C13.3149 68.6343 13.375 68.8658 13.4908 69.0833C13.6112 69.3009 13.7732 69.4722 13.9815 69.5926C14.1899 69.713 14.4213 69.7732 14.6806 69.7732C15.1528 69.7732 15.5371 69.5741 15.838 69.1759L16.1667 69.4028C16.0139 69.6482 15.8056 69.838 15.5463 69.9722C15.2871 70.1065 14.9954 70.1759 14.6621 70.1759C14.1528 70.1759 13.7315 70.0046 13.3982 69.662C13.0649 69.3195 12.8982 68.9028 12.8982 68.412C12.8982 68.0833 12.9769 67.7778 13.1343 67.4954C13.2917 67.213 13.5047 66.9907 13.7778 66.8333C14.051 66.6759 14.3565 66.5972 14.6945 66.5972C14.9075 66.5972 15.1112 66.6343 15.3102 66.6991C15.5093 66.7685 15.676 66.8565 15.8149 66.9676C15.9537 67.0833 16.0695 67.2222 16.1667 67.3935Z" fill="#E8C268"/>
<path d="M17.4954 65.375H17.9074V67.2963C18.0741 67.0648 18.2592 66.8889 18.4583 66.7732C18.6574 66.6574 18.875 66.5972 19.1111 66.5972C19.3518 66.5972 19.5648 66.662 19.75 66.7917C19.9352 66.9213 20.074 67.0926 20.162 67.3102C20.25 67.5278 20.2963 67.8704 20.2963 68.3333V70.0833H19.8842V68.4583C19.8842 68.0694 19.8703 67.8056 19.8379 67.6759C19.787 67.4491 19.6944 67.2824 19.5602 67.1667C19.4259 67.0509 19.25 66.9954 19.0324 66.9954C18.7824 66.9954 18.5602 67.0833 18.3611 67.2593C18.162 67.4352 18.0324 67.6528 17.9722 67.9074C17.9305 68.0741 17.912 68.3843 17.912 68.8333V70.0833H17.5V65.375H17.4954Z" fill="#E8C268"/>
<path d="M23.6157 66.6852H24.0555L25.1343 69.1667L26.1991 66.6852H26.6435L25.1713 70.088H25.0926L23.6157 66.6852Z" fill="#E8C268"/>
<path d="M27.9444 65.287C28.037 65.287 28.1203 65.3241 28.1851 65.3935C28.25 65.463 28.287 65.5509 28.287 65.6482C28.287 65.7454 28.2546 65.8287 28.1851 65.9028C28.1203 65.9722 28.037 66.0093 27.9444 66.0093C27.8518 66.0093 27.7731 65.9722 27.7083 65.9028C27.6435 65.8333 27.6064 65.75 27.6064 65.6482C27.6064 65.5463 27.6389 65.463 27.7083 65.3935C27.7731 65.3241 27.8564 65.287 27.9444 65.287ZM27.7407 66.6852H28.1527V70.088H27.7407V66.6852Z" fill="#E8C268"/>
<path d="M29.4861 65.375H29.8981V70.088H29.4861V65.375Z" fill="#E8C268"/>
<path d="M31.2268 65.375H31.6388V70.088H31.2268V65.375Z" fill="#E8C268"/>
<path d="M36.2315 66.6852V70.088H35.8241V69.5046C35.6528 69.7269 35.4584 69.8935 35.2408 70.0093C35.0232 70.1204 34.7871 70.1759 34.5324 70.1759C34.0787 70.1759 33.6898 70 33.3658 69.6528C33.0463 69.3056 32.8843 68.8796 32.8843 68.3796C32.8843 67.8889 33.0463 67.4722 33.3704 67.125C33.6945 66.7778 34.088 66.6019 34.5417 66.6019C34.8056 66.6019 35.0417 66.6621 35.2593 66.7778C35.4722 66.8982 35.6621 67.0741 35.8195 67.3148V66.6852H36.2315ZM34.5787 67.0232C34.3472 67.0232 34.1343 67.0833 33.9398 67.2037C33.7454 67.3241 33.5926 67.4908 33.4769 67.7083C33.3611 67.9259 33.3056 68.1528 33.3056 68.3935C33.3056 68.6343 33.3611 68.8611 33.4815 69.0787C33.5972 69.2963 33.7546 69.4676 33.9491 69.588C34.1435 69.7083 34.3565 69.7685 34.5787 69.7685C34.8056 69.7685 35.0185 69.7083 35.2222 69.588C35.4259 69.4676 35.5787 69.3056 35.6898 69.0972C35.8009 68.8889 35.8519 68.6574 35.8519 68.4028C35.8519 68.0093 35.7269 67.6806 35.4861 67.4167C35.2408 67.1528 34.9398 67.0232 34.5787 67.0232Z" fill="#E8C268"/>
<path d="M39.926 70.088V65.375H40.3381V67.2731C40.514 67.0463 40.7038 66.8796 40.9214 66.7685C41.1344 66.6574 41.3705 66.6019 41.6251 66.6019C42.0788 66.6019 42.4677 66.7778 42.7871 67.125C43.1066 67.4722 43.2686 67.8981 43.2686 68.3935C43.2686 68.8843 43.1066 69.3056 42.7825 69.6528C42.4584 70 42.0695 70.1759 41.6112 70.1759C41.3473 70.1759 41.1112 70.1157 40.8982 70C40.6853 69.8796 40.5001 69.7037 40.3334 69.463V70.088H39.926V70.088ZM41.5788 69.7546C41.8103 69.7546 42.0232 69.6944 42.2131 69.5741C42.4075 69.4537 42.5603 69.287 42.676 69.0694C42.7918 68.8519 42.8473 68.625 42.8473 68.3796C42.8473 68.1389 42.7918 67.9074 42.6714 67.6898C42.5557 67.4722 42.3982 67.3009 42.2038 67.1806C42.0094 67.0602 41.801 67 41.5788 67C41.3519 67 41.139 67.0602 40.9353 67.1806C40.7316 67.3009 40.5742 67.4676 40.4677 67.6713C40.3566 67.875 40.3057 68.1111 40.3057 68.3704C40.3057 68.7639 40.426 69.0926 40.6714 69.3565C40.9168 69.6204 41.2223 69.7546 41.5788 69.7546Z" fill="#E8C268"/>
<path d="M44.2131 66.6852H44.6483L45.7501 69.3055L46.8242 66.6852H47.264L45.3474 71.3287H44.9122L45.5326 69.8287L44.2131 66.6852Z" fill="#E8C268"/>
<path d="M53.2407 68.9583L53.588 69.1528C53.4722 69.3889 53.3426 69.5833 53.1898 69.7269C53.0417 69.875 52.8704 69.9861 52.6852 70.0602C52.5 70.1343 52.287 70.1759 52.0509 70.1759C51.5278 70.1759 51.1157 69.9954 50.8194 69.6296C50.5231 69.2639 50.375 68.8565 50.375 68.3982C50.375 67.9676 50.5 67.5833 50.75 67.2454C51.0694 66.8148 51.4907 66.6019 52.0231 66.6019C52.5694 66.6019 53.0093 66.8241 53.3333 67.2639C53.5648 67.5741 53.6852 67.963 53.6898 68.4259H50.8009C50.8102 68.8195 50.9259 69.1435 51.1574 69.3982C51.3889 69.6528 51.6713 69.7778 52.0139 69.7778C52.1759 69.7778 52.338 69.7454 52.4907 69.6852C52.6435 69.625 52.7778 69.5463 52.8843 69.4445C53 69.3426 53.1157 69.1806 53.2407 68.9583ZM53.2407 68.0417C53.1852 67.8102 53.1065 67.6204 53 67.4815C52.8935 67.3426 52.7546 67.2315 52.5833 67.1435C52.412 67.0602 52.2269 67.0139 52.037 67.0139C51.7222 67.0139 51.4491 67.1204 51.2222 67.3334C51.0556 67.4908 50.9306 67.7222 50.8472 68.0371H53.2407V68.0417Z" fill="#E8C268"/>
<path d="M54.9397 65.375H55.3517V70.088H54.9397V65.375Z" fill="#E8C268"/>
<path d="M56.8843 65.287C56.9769 65.287 57.0603 65.3241 57.1251 65.3935C57.1899 65.463 57.2269 65.5509 57.2269 65.6482C57.2269 65.7454 57.1945 65.8287 57.1251 65.9028C57.0603 65.9722 56.9769 66.0093 56.8843 66.0093C56.7918 66.0093 56.7131 65.9722 56.6482 65.9028C56.5834 65.8333 56.5464 65.75 56.5464 65.6482C56.5464 65.5463 56.5788 65.463 56.6482 65.3935C56.7131 65.3241 56.7918 65.287 56.8843 65.287ZM56.6806 66.6852H57.0927V70.088H56.6806V66.6852Z" fill="#E8C268"/>
<path d="M58.1204 66.6852H58.6157L59.4722 67.9306L60.3148 66.6852H60.8102L59.7176 68.2917L60.9491 70.088H60.4444L59.4676 68.6574L58.4954 70.088H58L59.2176 68.2963L58.1204 66.6852Z" fill="#E8C268"/>
<path d="M62.0648 65.287C62.1574 65.287 62.2407 65.3241 62.3055 65.3935C62.3703 65.463 62.4074 65.5509 62.4074 65.6482C62.4074 65.7454 62.375 65.8287 62.3055 65.9028C62.2407 65.9722 62.1574 66.0093 62.0648 66.0093C61.9722 66.0093 61.8935 65.9722 61.8287 65.9028C61.7638 65.8333 61.7268 65.75 61.7268 65.6482C61.7268 65.5463 61.7592 65.463 61.8287 65.3935C61.8888 65.3241 61.9722 65.287 62.0648 65.287ZM61.8564 66.6852H62.2685V70.088H61.8564V66.6852Z" fill="#E8C268"/>
<path d="M63.5046 66.6852H63.9259V67.1806C64.0509 66.9861 64.1852 66.838 64.3241 66.7407C64.463 66.6435 64.6111 66.5972 64.7593 66.5972C64.875 66.5972 64.9954 66.6343 65.125 66.713L64.9074 67.0833C64.8194 67.0417 64.75 67.0232 64.6898 67.0232C64.5509 67.0232 64.4167 67.0833 64.2917 67.2037C64.162 67.3241 64.0648 67.5093 64 67.7593C63.9491 67.9537 63.9213 68.3472 63.9213 68.9352V70.088H63.5V66.6852H63.5046Z" fill="#E8C268"/>
<path d="M71.3378 67.3935L71.0091 67.6111C70.7267 67.213 70.3378 67.0139 69.8517 67.0139C69.4582 67.0139 69.1341 67.1482 68.8749 67.412C68.6156 67.6806 68.486 68.0046 68.486 68.3843C68.486 68.6343 68.5462 68.8658 68.6619 69.0833C68.7823 69.3009 68.9443 69.4722 69.1527 69.5926C69.361 69.713 69.5925 69.7732 69.8517 69.7732C70.324 69.7732 70.7082 69.5741 71.0091 69.1759L71.3378 69.4028C71.1851 69.6482 70.9767 69.838 70.7175 69.9722C70.4582 70.1065 70.1666 70.1759 69.8332 70.1759C69.324 70.1759 68.9027 70.0046 68.5693 69.662C68.236 69.3195 68.0693 68.9028 68.0693 68.412C68.0693 68.0833 68.148 67.7778 68.3054 67.4954C68.4629 67.213 68.6758 66.9907 68.949 66.8333C69.2221 66.6759 69.5277 66.5972 69.8656 66.5972C70.0786 66.5972 70.2823 66.6343 70.4814 66.6991C70.6804 66.7685 70.8471 66.8565 70.986 66.9676C71.1249 67.0787 71.2406 67.2222 71.3378 67.3935Z" fill="#E8C268"/>
<path d="M72.6018 65.375H73.0138V70.088H72.6018V65.375Z" fill="#E8C268"/>
<path d="M74.5509 65.287C74.6435 65.287 74.7268 65.3241 74.7916 65.3935C74.8564 65.463 74.8934 65.5509 74.8934 65.6482C74.8934 65.7454 74.861 65.8287 74.7916 65.9028C74.7268 65.9722 74.6435 66.0093 74.5509 66.0093C74.4583 66.0093 74.3796 65.9722 74.3147 65.9028C74.2499 65.8333 74.2129 65.75 74.2129 65.6482C74.2129 65.5463 74.2453 65.463 74.3147 65.3935C74.3796 65.3241 74.4583 65.287 74.5509 65.287ZM74.3425 66.6852H74.7546V70.088H74.3425V66.6852Z" fill="#E8C268"/>
<path d="M77.4723 65.375V65.8009C77.3195 65.7315 77.1899 65.6991 77.0834 65.6991C77.0047 65.6991 76.9353 65.7176 76.8843 65.75C76.8288 65.787 76.7964 65.8241 76.7825 65.8704C76.7686 65.9167 76.764 66.037 76.764 66.2269V66.6852H77.4353V67.0648H76.7593L76.7547 70.088H76.3427V67.0648H75.9214V66.6852H76.3427V66.1528C76.3427 65.9074 76.3658 65.7361 76.4075 65.6296C76.4492 65.5232 76.5232 65.4398 76.6251 65.3796C76.7269 65.3148 76.8473 65.2824 76.9908 65.2824C77.1251 65.287 77.2871 65.3148 77.4723 65.375Z" fill="#E8C268"/>
<path d="M79.9027 65.375V65.8009C79.75 65.7315 79.6203 65.6991 79.5139 65.6991C79.4351 65.6991 79.3657 65.7176 79.3148 65.75C79.2592 65.787 79.2268 65.8241 79.2129 65.8704C79.199 65.9167 79.1944 66.037 79.1944 66.2269V66.6852H79.8657V67.0648H79.1944L79.1898 70.088H78.7777V67.0648H78.3564V66.6852H78.7777V66.1528C78.7777 65.9074 78.8009 65.7361 78.8426 65.6296C78.8842 65.5232 78.9583 65.4398 79.0601 65.3796C79.162 65.3148 79.2824 65.2824 79.4259 65.2824C79.5555 65.287 79.7176 65.3148 79.9027 65.375Z" fill="#E8C268"/>
</g>
<defs>
<clipPath id="clip0_102_515">
<rect width="80" height="62.3333" fill="white" transform="translate(0 9)"/>
</clipPath>
</defs>
</svg>
