<svg width="24" height="24" viewBox="0 0 24 24" fill="none" xmlns="http://www.w3.org/2000/svg">
<path d="M12.0105 3C7.05515 3 3.02114 7.03054 3.01934 11.9859C3.01844 13.5699 3.43332 15.1163 4.21992 16.4789L3 21L7.70918 19.8873C9.02228 20.6037 10.5005 20.9798 12.0053 20.9807H12.0088C16.9633 20.9807 20.9955 16.9492 20.9982 11.9947C21 9.59263 20.066 7.33416 18.3686 5.63496C16.6712 3.93666 14.4153 3.0009 12.0105 3ZM12.0088 4.8C13.9312 4.8009 15.7378 5.55042 17.0959 6.90762C18.454 8.26662 19.2 10.0724 19.1982 11.993C19.1964 15.9566 15.9724 19.1807 12.007 19.1807C10.8073 19.1798 9.61897 18.8785 8.57227 18.307L7.96582 17.9766L7.29609 18.1348L5.52422 18.5531L5.95664 16.9465L6.15176 16.2258L5.7791 15.5789C5.1509 14.4917 4.81844 13.2486 4.81934 11.9859C4.82114 8.02414 8.04609 4.8 12.0088 4.8ZM8.82891 7.8375C8.67861 7.8375 8.43559 7.89375 8.22949 8.11875C8.02339 8.34285 7.44199 8.88562 7.44199 9.99082C7.44199 11.096 8.24707 12.1643 8.35957 12.3146C8.47117 12.464 9.91357 14.8037 12.1969 15.7037C14.0941 16.4516 14.4794 16.304 14.8916 16.2662C15.3038 16.2293 16.2214 15.7239 16.4086 15.1992C16.5958 14.6745 16.5962 14.2232 16.5404 14.1305C16.4846 14.0369 16.3348 13.9811 16.1098 13.8686C15.8857 13.7561 14.7813 13.2138 14.5752 13.1391C14.3691 13.0644 14.2183 13.0266 14.0689 13.2516C13.9195 13.4766 13.4902 13.9811 13.3588 14.1305C13.2274 14.2808 13.0969 14.301 12.8719 14.1885C12.6469 14.0751 11.9234 13.8373 11.0648 13.0723C10.397 12.4774 9.94644 11.7434 9.81504 11.5184C9.68454 11.2943 9.80273 11.1712 9.91523 11.0596C10.016 10.9588 10.1385 10.7972 10.251 10.6658C10.3626 10.5344 10.4013 10.4408 10.476 10.2914C10.5507 10.142 10.5124 10.0102 10.4566 9.89766C10.4008 9.78516 9.96386 8.67585 9.76406 8.23125C9.59576 7.85775 9.41801 7.84907 9.25781 7.84277C9.12731 7.83737 8.97831 7.8375 8.82891 7.8375Z" fill="white"/>
</svg>
