<svg width="40" height="40" viewBox="0 0 40 40" fill="none" xmlns="http://www.w3.org/2000/svg">
<path d="M26.1832 13.8167C26.0283 13.6605 25.844 13.5365 25.6409 13.4519C25.4378 13.3672 25.2199 13.3237 24.9999 13.3237C24.7799 13.3237 24.562 13.3672 24.3589 13.4519C24.1558 13.5365 23.9715 13.6605 23.8166 13.8167L19.9999 17.65L16.1832 13.8167C15.8694 13.5028 15.4437 13.3265 14.9999 13.3265C14.5561 13.3265 14.1304 13.5028 13.8166 13.8167C13.5027 14.1305 13.3264 14.5562 13.3264 15C13.3264 15.4439 13.5027 15.8695 13.8166 16.1833L17.6499 20L13.8166 23.8167C13.6603 23.9716 13.5364 24.156 13.4517 24.3591C13.3671 24.5622 13.3236 24.78 13.3236 25C13.3236 25.22 13.3671 25.4379 13.4517 25.641C13.5364 25.8441 13.6603 26.0284 13.8166 26.1834C13.9715 26.3396 14.1558 26.4636 14.3589 26.5482C14.562 26.6328 14.7799 26.6764 14.9999 26.6764C15.2199 26.6764 15.4378 26.6328 15.6409 26.5482C15.844 26.4636 16.0283 26.3396 16.1832 26.1834L19.9999 22.35L23.8166 26.1834C23.9715 26.3396 24.1558 26.4636 24.3589 26.5482C24.562 26.6328 24.7799 26.6764 24.9999 26.6764C25.2199 26.6764 25.4378 26.6328 25.6409 26.5482C25.844 26.4636 26.0283 26.3396 26.1832 26.1834C26.3394 26.0284 26.4634 25.8441 26.548 25.641C26.6327 25.4379 26.6762 25.22 26.6762 25C26.6762 24.78 26.6327 24.5622 26.548 24.3591C26.4634 24.156 26.3394 23.9716 26.1832 23.8167L22.3499 20L26.1832 16.1833C26.3394 16.0284 26.4634 15.8441 26.548 15.641C26.6327 15.4379 26.6762 15.22 26.6762 15C26.6762 14.78 26.6327 14.5622 26.548 14.3591C26.4634 14.156 26.3394 13.9716 26.1832 13.8167V13.8167ZM31.7832 8.21668C30.2458 6.62484 28.4067 5.35514 26.3733 4.48165C24.3399 3.60817 22.1529 3.1484 19.9399 3.12917C17.7269 3.10994 15.5323 3.53163 13.484 4.36965C11.4357 5.20766 9.57485 6.44522 8.00997 8.0101C6.44509 9.57498 5.20754 11.4358 4.36953 13.4841C3.53151 15.5324 3.10982 17.727 3.12905 19.94C3.14828 22.153 3.60805 24.34 4.48153 26.3734C5.35502 28.4068 6.62472 30.2459 8.21656 31.7834C9.754 33.3752 11.5931 34.6449 13.6265 35.5184C15.6599 36.3919 17.8469 36.8516 20.0599 36.8709C22.2729 36.8901 24.4675 36.4684 26.5158 35.6304C28.5641 34.7924 30.4249 33.5548 31.9898 31.9899C33.5547 30.4251 34.7922 28.5642 35.6303 26.5159C36.4683 24.4676 36.89 22.273 36.8707 20.06C36.8515 17.847 36.3917 15.66 35.5183 13.6266C34.6448 11.5932 33.3751 9.75413 31.7832 8.21668V8.21668ZM29.4332 29.4334C27.2533 31.6157 24.3841 32.9747 21.3145 33.2789C18.245 33.583 15.1649 32.8135 12.5991 31.1013C10.0333 29.3892 8.14049 26.8404 7.24318 23.8892C6.34587 20.938 6.49956 17.7669 7.67808 14.9163C8.85659 12.0657 10.987 9.71193 13.7064 8.25595C16.4257 6.79997 19.5658 6.3319 22.5916 6.93147C25.6173 7.53104 28.3416 9.16117 30.3003 11.5441C32.259 13.9271 33.3308 16.9154 33.3332 20C33.3392 21.7522 32.9975 23.4881 32.3281 25.1073C31.6587 26.7266 30.6747 28.1969 29.4332 29.4334V29.4334Z" fill="#E8C268"/>
</svg>
