<svg width="40" height="40" viewBox="0 0 40 40" fill="none" xmlns="http://www.w3.org/2000/svg">
<path d="M4.99992 13.3333H34.9999C35.4419 13.3333 35.8659 13.1577 36.1784 12.8452C36.491 12.5326 36.6666 12.1087 36.6666 11.6667C36.6666 11.2246 36.491 10.8007 36.1784 10.4882C35.8659 10.1756 35.4419 10 34.9999 10H4.99992C4.55789 10 4.13397 10.1756 3.82141 10.4882C3.50885 10.8007 3.33325 11.2246 3.33325 11.6667C3.33325 12.1087 3.50885 12.5326 3.82141 12.8452C4.13397 13.1577 4.55789 13.3333 4.99992 13.3333V13.3333ZM34.9999 26.6667H4.99992C4.55789 26.6667 4.13397 26.8423 3.82141 27.1548C3.50885 27.4674 3.33325 27.8913 3.33325 28.3333C3.33325 28.7754 3.50885 29.1993 3.82141 29.5118C4.13397 29.8244 4.55789 30 4.99992 30H34.9999C35.4419 30 35.8659 29.8244 36.1784 29.5118C36.491 29.1993 36.6666 28.7754 36.6666 28.3333C36.6666 27.8913 36.491 27.4674 36.1784 27.1548C35.8659 26.8423 35.4419 26.6667 34.9999 26.6667ZM34.9999 18.3333H4.99992C4.55789 18.3333 4.13397 18.5089 3.82141 18.8215C3.50885 19.134 3.33325 19.558 3.33325 20C3.33325 20.442 3.50885 20.866 3.82141 21.1785C4.13397 21.4911 4.55789 21.6667 4.99992 21.6667H34.9999C35.4419 21.6667 35.8659 21.4911 36.1784 21.1785C36.491 20.866 36.6666 20.442 36.6666 20C36.6666 19.558 36.491 19.134 36.1784 18.8215C35.8659 18.5089 35.4419 18.3333 34.9999 18.3333Z" fill="#264653"/>
</svg>
